<?xml version="1.0" standalone="no"?>
<svg viewBox="0 0 200 200" xmlns="http://www.w3.org/2000/svg">
  <path fill="#FA4D56" d="M30.8,-57.4C41,-47.6,50.8,-41.3,58.3,-32.3C65.8,-23.4,70.9,-11.7,66.1,-2.7C61.4,6.2,46.9,12.5,38.4,19.7C29.9,26.9,27.5,35.1,22.1,38.3C16.7,41.5,8.3,39.6,0.1,39.5C-8.2,39.4,-16.5,41.1,-30.6,43C-44.7,44.8,-64.8,46.9,-71,39.8C-77.2,32.6,-69.6,16.3,-60.2,5.5C-50.7,-5.4,-39.4,-10.8,-30.9,-13.9C-22.3,-16.9,-16.4,-17.7,-11.8,-30.6C-7.1,-43.5,-3.5,-68.7,3.4,-74.6C10.4,-80.5,20.7,-67.2,30.8,-57.4Z" transform="translate(100 100)" />
</svg>
